<svg version="1.1" width="512" height="512" viewBox="0 0 512 512" xmlns="http://www.w3.org/2000/svg" xmlns:xlink="http://www.w3.org/1999/xlink" overflow="hidden"><g><g><path d=" M 416 70 C 413.264 70 410.506 70.128 407.735 70.383 C 403.108 53.079 393.64 37.355 380.232 25.029 C 362.676 8.889 339.864 -3.55271e-15 316 -3.55271e-15 C 294.021 -3.55271e-15 272.852 7.678 256 21.444 C 239.148 7.678 217.979 -3.55271e-15 196 -3.55271e-15 C 172.136 -3.55271e-15 149.324 8.889 131.768 25.029 C 118.36 37.354 108.893 53.08 104.266 70.383 C 101.494 70.128 98.736 70 96 70 C 43.617 70 1 112.617 1 165 C 1 217.383 43.617 260 96 260 C 98.735 260 101.494 259.872 104.265 259.617 C 108.892 276.92 118.36 292.645 131.767 304.971 C 149.324 321.111 172.136 330 196 330 C 217.979 330 239.147 322.322 256 308.555 C 272.853 322.322 294.021 330 316 330 C 339.864 330 362.676 321.111 380.232 304.971 C 393.64 292.646 403.108 276.92 407.735 259.617 C 410.506 259.872 413.264 260 416 260 C 468.383 260 511 217.383 511 165 C 511 112.617 468.383 70 416 70 Z M 416 230 C 410.627 230 405.058 229.252 399.446 227.776 C 395.175 226.652 390.63 227.468 387.017 230.004 C 383.403 232.539 381.089 236.537 380.692 240.934 C 377.649 274.606 349.838 300 316 300 C 297.403 300 279.637 291.938 267.257 277.88 C 264.409 274.646 260.309 272.793 256 272.793 C 251.691 272.793 247.59 274.646 244.743 277.88 C 232.363 291.938 214.597 300 196 300 C 162.162 300 134.351 274.606 131.307 240.933 C 130.91 236.537 128.596 232.539 124.983 230.004 C 121.37 227.469 116.823 226.653 112.553 227.776 C 106.942 229.252 101.373 230 96 230 C 60.159 230 31 200.841 31 165 C 31 129.159 60.159 100 96 100 C 101.376 100 106.945 100.748 112.551 102.223 C 116.822 103.348 121.368 102.533 124.982 99.997 C 128.596 97.462 130.91 93.464 131.307 89.067 C 134.351 55.394 162.162 30 196 30 C 214.598 30 232.364 38.062 244.743 52.12 C 247.591 55.353 251.691 57.207 256 57.207 C 260.309 57.207 264.41 55.353 267.258 52.12 C 279.637 38.062 297.402 30 316 30 C 349.838 30 377.649 55.394 380.692 89.066 C 381.089 93.463 383.404 97.462 387.017 99.997 C 390.632 102.532 395.18 103.348 399.448 102.223 C 405.055 100.748 410.624 100 416 100 C 451.841 100 481 129.159 481 165 C 481 200.841 451.841 230 416 230 Z" fill="#2A62D1"/><path d=" M 285.394 446.394 L 271 460.787 L 271 377 C 271 368.716 264.284 362 256 362 C 247.716 362 241 368.716 241 377 L 241 460.787 L 226.606 446.393 C 220.749 440.536 211.251 440.536 205.393 446.393 C 199.535 452.25 199.535 461.748 205.393 467.606 L 245.393 507.606 C 248.322 510.535 252.161 512 256 512 C 259.839 512 263.678 510.535 266.606 507.606 L 306.606 467.606 C 312.464 461.749 312.464 452.251 306.606 446.393 C 300.749 440.536 291.251 440.536 285.394 446.394 Z" fill="#2A62D1"/><path d=" M 425.394 446.394 L 411 460.787 L 411 377 C 411 368.716 404.284 362 396 362 C 387.716 362 381 368.716 381 377 L 381 460.787 L 366.606 446.393 C 360.749 440.536 351.251 440.536 345.393 446.393 C 339.535 452.25 339.535 461.748 345.393 467.606 L 385.393 507.606 C 388.322 510.535 392.161 512 396 512 C 399.839 512 403.678 510.535 406.606 507.606 L 446.606 467.606 C 452.464 461.749 452.464 452.251 446.606 446.393 C 440.749 440.536 431.251 440.536 425.394 446.394 Z" fill="#2A62D1"/><path d=" M 145.394 446.394 L 131 460.787 L 131 377 C 131 368.716 124.284 362 116 362 C 107.716 362 101 368.716 101 377 L 101 460.787 L 86.606 446.393 C 80.749 440.536 71.251 440.536 65.393 446.393 C 59.535 452.25 59.535 461.748 65.393 467.606 L 105.393 507.606 C 108.322 510.535 112.161 512 116 512 C 119.839 512 123.678 510.535 126.606 507.606 L 166.606 467.606 C 172.464 461.749 172.464 452.251 166.606 446.393 C 160.749 440.536 151.251 440.536 145.394 446.394 Z" fill="#2A62D1"/><path d=" M 196.625 186.046 C 192.391 182.495 186.085 183.05 182.537 187.282 C 181.84 188.113 181.088 188.889 180.302 189.59 C 176.271 193.18 171.123 195 165 195 C 148.458 195 135 181.542 135 165 C 135 148.458 148.458 135 165 135 C 171.013 135 176.811 136.77 181.767 140.117 C 186.343 143.209 192.559 142.005 195.651 137.429 C 198.742 132.853 197.539 126.636 192.962 123.545 C 184.687 117.955 175.018 115 165 115 C 137.43 115 115 137.43 115 165 C 115 192.57 137.43 215 165 215 C 176.019 215 185.91 211.378 193.604 204.525 C 195.111 203.183 196.544 201.706 197.862 200.133 C 201.411 195.902 200.857 189.595 196.625 186.046 Z" fill="#2A62D1"/><path d=" M 366.003 194.864 C 365.96 194.864 365.917 194.864 365.874 194.865 C 362.308 194.91 358.594 194.945 355.063 194.969 C 357.806 191.217 361.139 186.576 365.15 180.845 C 369.156 175.122 371.782 169.656 372.956 164.595 C 373.202 163.297 373.47 161.378 373.506 160.059 C 373.506 146.242 362.265 135 348.447 135 C 336.501 135 326.16 143.5 323.859 155.212 C 322.795 160.631 326.325 165.888 331.744 166.952 C 337.168 168.017 342.42 164.486 343.484 159.067 C 343.947 156.711 346.034 155 348.447 155 C 351.078 155 353.247 157.02 353.484 159.59 L 353.369 160.49 C 352.883 162.294 351.682 165.208 348.765 169.376 C 339.484 182.638 333.949 189.885 330.975 193.778 C 327.115 198.833 324.565 202.172 326.206 207.507 C 327.18 210.673 329.663 213.196 332.854 214.261 C 334.18 214.701 357.635 214.969 366.125 214.863 C 371.646 214.794 376.067 210.26 375.998 204.738 C 375.931 199.259 371.467 194.864 366.003 194.864 Z" fill="#2A62D1"/><path d=" M 259 115 C 231.43 115 209 137.43 209 165 C 209 192.57 231.43 215 259 215 C 286.57 215 309 192.57 309 165 C 309 137.43 286.57 115 259 115 Z M 259 195 C 242.458 195 229 181.542 229 165 C 229 148.458 242.458 135 259 135 C 275.542 135 289 148.458 289 165 C 289 181.542 275.542 195 259 195 Z" fill="#2A62D1"/></g></g></svg>