<svg version="1.1" width="512" height="512" viewBox="0 0 512.063 512.063" xmlns="http://www.w3.org/2000/svg" xmlns:xlink="http://www.w3.org/1999/xlink" overflow="hidden"><g><g><g><path d=" M 103.864 136.354 C 126.177 139.48 146.63 148.721 163.008 163.078 C 190.81 187.447 226.575 201.733 263.717 203.306 C 265.997 203.402 268.272 203.451 270.548 203.45 C 305.864 203.45 340.536 191.881 368.854 170.524 C 380.333 161.867 390.513 151.819 399.271 140.603 C 409.229 149.568 418.324 159.499 426.333 170.228 C 428.297 172.858 431.307 174.247 434.354 174.247 C 436.434 174.247 438.533 173.6 440.329 172.26 C 444.755 168.956 445.664 162.69 442.36 158.264 C 431.87 144.212 419.68 131.41 406.206 120.168 C 400.726 103.949 392.692 88.662 382.291 74.69 C 360.949 46.018 331.491 25.614 297.102 15.683 C 263.837 6.078 227.682 7.309 195.297 19.152 C 190.11 21.048 187.443 26.791 189.34 31.978 C 191.236 37.164 196.978 39.832 202.166 37.935 C 230.592 27.539 262.337 26.461 291.553 34.898 C 321.708 43.606 347.537 61.495 366.248 86.632 C 368.878 90.165 371.313 93.803 373.594 97.516 C 370.751 95.894 367.884 94.316 364.973 92.823 C 335.875 77.903 304.619 69.752 271.948 68.505 L 249.197 48.447 C 245.054 44.795 238.736 45.192 235.083 49.335 C 231.431 53.478 231.828 59.797 235.971 63.449 L 242.553 69.251 C 227.363 70.637 212.395 73.56 197.847 77.994 C 192.564 79.604 189.586 85.192 191.197 90.475 C 192.806 95.758 198.4 98.738 203.677 97.125 C 222.858 91.279 242.853 88.315 263.108 88.315 C 280.695 88.315 297.85 90.509 314.449 94.825 L 290.406 114.543 C 286.136 118.045 285.513 124.346 289.015 128.617 C 290.993 131.028 293.861 132.276 296.753 132.276 C 298.983 132.276 301.229 131.533 303.089 130.008 L 337.044 102.161 C 343.411 104.654 349.686 107.46 355.848 110.62 C 365.598 115.619 374.94 121.447 383.779 127.974 C 376.037 137.949 367.001 146.869 356.809 154.557 C 330.358 174.507 297.593 184.722 264.561 183.325 C 231.958 181.945 200.575 169.413 176.19 148.039 C 159.855 133.721 140.134 123.724 118.603 118.76 C 123.004 107.802 128.717 97.476 135.658 87.952 C 138.91 83.489 137.929 77.233 133.466 73.981 C 129.003 70.73 122.746 71.71 119.494 76.174 C 109.053 90.504 101.05 106.414 95.708 123.463 C 94.83 126.267 95.229 129.315 96.8 131.798 C 98.371 134.279 100.954 135.946 103.864 136.354 Z" fill="#2A62D1"/><path d=" M 199.528 416.943 C 206.731 380.682 201.221 342.565 184.011 309.612 C 166.564 276.204 137.812 249.689 103.053 234.952 C 89.817 229.34 76.029 225.524 61.936 223.548 C 64.72 210.449 68.772 197.615 74.056 185.321 C 76.237 180.247 73.891 174.366 68.818 172.185 C 63.739 170.003 57.862 172.35 55.681 177.424 C 48.757 193.535 43.765 210.493 40.766 227.783 C 29.461 240.637 20.238 255.24 13.338 271.233 C -3.884 311.149 -4.447 355.467 11.752 396.022 C 28.035 436.791 59.238 468.735 99.614 485.972 C 119.905 494.635 141.395 499.011 163.096 499.011 C 175.011 499.011 186.993 497.691 198.867 495.036 C 201.734 494.395 204.176 492.525 205.54 489.923 C 206.906 487.321 207.058 484.25 205.956 481.527 C 197.508 460.637 195.284 438.305 199.528 416.943 Z M 107.467 467.576 C 72.019 452.443 44.622 424.396 30.326 388.602 C 16.114 353.021 16.603 314.152 31.702 279.154 C 33.447 275.11 35.379 271.182 37.455 267.35 C 37.472 270.623 37.538 273.895 37.701 277.162 C 39.329 309.822 47.898 340.967 63.155 369.884 L 57.16 399.616 C 56.068 405.03 59.572 410.304 64.986 411.395 C 65.653 411.529 66.318 411.594 66.973 411.594 C 71.635 411.594 75.808 408.315 76.765 403.569 L 78.499 394.969 C 87.294 407.43 97.31 418.932 108.423 429.313 C 110.351 431.114 112.802 432.005 115.247 432.005 C 117.921 432.005 120.588 430.939 122.557 428.831 C 126.328 424.795 126.112 418.467 122.076 414.697 C 107.424 401.009 94.859 385.175 84.731 367.634 C 75.937 352.403 69.26 336.449 64.698 319.916 L 93.796 330.879 C 94.957 331.317 96.149 331.524 97.319 331.524 C 101.362 331.524 105.169 329.054 106.678 325.047 C 108.625 319.879 106.015 314.11 100.846 312.163 L 59.752 296.68 C 58.727 289.92 58.02 283.082 57.675 276.165 C 57.13 265.222 57.505 254.217 58.738 243.3 C 71.248 245.017 83.492 248.381 95.245 253.364 C 125.747 266.296 150.975 289.56 166.282 318.87 C 181.388 347.795 186.227 381.24 179.909 413.045 C 175.677 434.352 176.879 456.428 183.347 477.558 C 157.563 481.246 131.545 477.855 107.467 467.576 Z" fill="#2A62D1"/><path d=" M 510.857 310.397 C 506.762 276.467 492.316 245.176 469.08 219.909 C 467.091 217.745 464.23 216.564 461.316 216.686 C 458.379 216.804 455.645 218.208 453.837 220.524 C 439.973 238.285 421.744 251.376 401.121 258.382 C 366.117 270.274 335.861 294.105 315.929 325.485 C 295.72 357.299 287.133 395.457 291.75 432.928 C 293.508 447.197 297.097 461.045 302.432 474.238 C 289.696 478.376 276.556 481.285 263.266 482.855 C 257.782 483.503 253.861 488.475 254.509 493.959 C 255.11 499.045 259.429 502.786 264.427 502.786 C 264.819 502.786 265.215 502.763 265.614 502.716 C 283.035 500.657 300.222 496.499 316.7 490.448 C 327.196 492.55 337.873 493.617 348.634 493.617 C 355.076 493.617 361.548 493.239 368.026 492.483 C 411.206 487.439 449.867 465.768 476.89 431.462 C 504.056 396.975 516.118 353.98 510.857 310.397 Z M 461.18 419.086 C 437.471 449.184 403.565 468.195 365.706 472.618 C 361.331 473.129 356.963 473.42 352.606 473.539 C 355.432 471.888 358.233 470.194 360.98 468.42 C 388.451 450.681 411.139 427.687 428.554 400.016 L 457.3 390.342 C 462.534 388.58 465.35 382.909 463.588 377.675 C 461.827 372.442 456.158 369.623 450.921 371.387 L 442.606 374.186 C 449 360.339 453.952 345.915 457.386 331.099 C 458.634 325.719 455.283 320.346 449.903 319.099 C 444.524 317.851 439.151 321.202 437.904 326.582 C 433.375 346.118 425.944 364.917 415.818 382.456 C 407.024 397.687 396.546 411.446 384.509 423.663 L 379.454 392.982 C 378.556 387.533 373.426 383.844 367.961 384.74 C 362.512 385.638 358.822 390.783 359.72 396.233 L 366.859 439.563 C 361.517 443.831 355.949 447.862 350.131 451.619 C 340.926 457.563 331.209 462.74 321.137 467.131 C 316.369 455.439 313.161 443.153 311.6 430.483 C 307.549 397.601 315.081 364.121 332.811 336.21 C 350.308 308.665 376.852 287.751 407.555 277.32 C 428.123 270.332 446.642 258.253 461.706 242.087 C 477.796 262.575 487.865 286.803 491.002 312.794 C 495.62 351.059 485.029 388.808 461.18 419.086 Z" fill="#2A62D1"/><circle cx="159.183" cy="50.036" r="10" fill="#2A62D1"/></g></g></g></svg>