<svg version="1.1" width="512" height="512" viewBox="0 0 512 512" xmlns="http://www.w3.org/2000/svg" xmlns:xlink="http://www.w3.org/1999/xlink" overflow="hidden"><g><g><path d=" M 95.37 420.611 C 80.367 420.611 68.161 432.812 68.161 447.809 C 68.161 462.806 80.366 475.007 95.37 475.007 C 110.373 475.007 122.578 462.806 122.578 447.809 C 122.578 432.811 110.373 420.611 95.37 420.611 Z M 95.37 459.983 C 88.655 459.983 83.191 454.521 83.191 447.809 C 83.191 441.096 88.655 435.635 95.37 435.635 C 102.085 435.635 107.549 441.097 107.549 447.809 C 107.549 454.522 102.085 459.983 95.37 459.983 Z" fill="#D63E8F"/><path d=" M 368.173 420.611 C 353.17 420.611 340.965 432.812 340.965 447.809 C 340.965 462.806 353.17 475.007 368.173 475.007 C 383.176 475.007 395.381 462.806 395.381 447.809 C 395.382 432.811 383.176 420.611 368.173 420.611 Z M 368.173 459.983 C 361.458 459.983 355.994 454.521 355.994 447.809 C 355.994 441.096 361.458 435.635 368.173 435.635 C 374.888 435.635 380.352 441.097 380.352 447.809 C 380.352 454.522 374.888 459.983 368.173 459.983 Z" fill="#D63E8F"/><path d=" M 240.278 440.297 L 159.132 440.297 C 155.397 408.43 128.236 383.617 95.37 383.617 C 62.505 383.617 35.344 408.43 31.609 440.297 L 24.567 440.297 C 19.308 440.297 15.03 436.02 15.03 430.762 L 15.03 388.067 C 15.03 384.235 15.36 380.353 15.95 376.52 L 43.669 376.52 C 62.19 376.52 77.257 361.458 77.257 342.944 L 77.257 330.903 C 77.257 326.754 73.893 323.391 69.742 323.391 L 39.85 323.391 C 45.866 307.688 60.184 275.151 85.737 242.999 C 106.248 217.191 129.912 196.654 156.071 181.961 C 188.657 163.658 225.335 154.377 265.085 154.377 L 332.513 154.377 C 336.664 154.377 340.028 151.014 340.028 146.865 C 340.028 142.716 336.664 139.353 332.513 139.353 L 265.085 139.353 C 222.569 139.353 183.286 149.354 148.328 169.078 C 120.42 184.824 95.251 206.742 73.519 234.223 C 41.402 274.836 26.593 315.07 22.803 326.583 C 8.493 340.166 3.19744e-14 368.064 3.19744e-14 388.067 L 3.19744e-14 430.762 C 3.19744e-14 444.304 11.021 455.32 24.566 455.32 L 31.608 455.32 C 35.344 487.187 62.505 512 95.37 512 C 128.235 512 155.397 487.187 159.132 455.321 L 240.278 455.321 C 244.429 455.321 247.793 451.958 247.793 447.809 C 247.792 443.66 244.429 440.297 240.278 440.297 Z M 32.227 338.415 L 62.227 338.415 L 62.227 342.945 C 62.227 353.174 53.901 361.497 43.668 361.497 L 19.623 361.497 C 22.91 351.724 27.559 343.338 32.227 338.415 Z M 95.37 496.976 C 68.249 496.976 46.184 474.92 46.184 447.809 C 46.184 420.698 68.248 398.64 95.37 398.64 C 122.491 398.64 144.557 420.697 144.557 447.809 C 144.557 474.92 122.491 496.976 95.37 496.976 Z" fill="#D63E8F"/><path d=" M 206.334 273.623 C 202.183 273.623 198.819 276.986 198.819 281.135 C 198.819 285.284 202.183 288.647 206.334 288.647 L 405.469 288.647 C 409.616 288.647 412.978 285.29 412.984 281.145 C 412.986 279.478 412.687 239.916 382.052 203.922 C 368.3 187.765 348.207 178.5 326.921 178.5 L 251.941 178.5 C 186.601 178.5 126.91 213.97 96.159 271.071 C 94.974 273.273 93.802 275.518 92.676 277.745 C 91.498 280.073 91.612 282.847 92.98 285.069 C 94.347 287.292 96.77 288.647 99.381 288.647 L 176.275 288.647 C 180.426 288.647 183.79 285.284 183.79 281.135 C 183.79 276.986 180.426 273.623 176.275 273.623 L 111.949 273.623 C 140.744 224.081 193.902 193.524 251.94 193.524 L 262.009 193.524 L 262.009 273.623 Z M 277.039 193.523 L 326.921 193.523 C 343.792 193.523 359.715 200.862 370.606 213.657 C 390.084 236.543 395.692 261.472 397.304 273.622 L 277.039 273.622 Z" fill="#D63E8F"/><path d=" M 247.147 318.977 L 211.47 318.977 C 207.319 318.977 203.955 322.34 203.955 326.489 C 203.955 330.638 207.319 334.001 211.47 334.001 L 247.147 334.001 C 251.298 334.001 254.662 330.638 254.662 326.489 C 254.661 322.34 251.298 318.977 247.147 318.977 Z" fill="#D63E8F"/><path d=" M 424.908 37.834 L 198.819 37.834 L 198.819 31.635 C 198.819 25.698 194.346 20.682 188.413 19.97 C 179.483 18.897 172.725 13.019 168.629 8.275 C 164.086 3.016 157.5 5.32907e-15 150.561 5.32907e-15 L 120.655 5.32907e-15 C 116.504 5.32907e-15 113.14 3.363 113.14 7.512 L 113.14 17.347 L 87.236 17.347 C 83.085 17.347 79.721 20.71 79.721 24.859 C 79.721 29.008 83.085 32.371 87.236 32.371 L 113.14 32.371 L 113.14 58.321 L 87.236 58.321 C 83.085 58.321 79.721 61.684 79.721 65.833 C 79.721 69.982 83.085 73.345 87.236 73.345 L 113.14 73.345 L 113.14 83.18 C 113.14 87.329 116.504 90.692 120.655 90.692 L 150.561 90.692 C 157.501 90.692 164.088 87.676 168.629 82.416 C 172.725 77.674 179.481 71.796 188.412 70.723 C 194.346 70.011 198.819 64.995 198.819 59.057 L 198.819 52.859 L 424.908 52.859 C 464.644 52.859 496.971 85.174 496.971 124.895 L 496.971 359.125 C 496.971 376.229 484.871 390.556 468.78 394.016 L 468.78 326.427 C 468.78 272.326 453.219 233.93 440.165 211.248 C 431.039 195.39 421.872 184.779 416.261 179.037 L 420.94 173.281 C 426.052 166.991 427.063 158.537 423.579 151.22 C 420.095 143.902 412.894 139.357 404.786 139.357 L 362.572 139.357 C 358.421 139.357 355.057 142.72 355.057 146.869 C 355.057 151.018 358.421 154.381 362.572 154.381 L 404.786 154.381 C 408.083 154.381 409.536 156.687 410.008 157.677 C 410.48 158.669 411.353 161.25 409.274 163.808 L 400.205 174.966 C 397.595 178.177 398.075 182.894 401.277 185.515 C 401.747 185.9 443.465 220.958 452.165 297.855 L 407.883 320.817 C 405.392 322.108 403.828 324.679 403.828 327.485 L 403.828 341.613 C 403.828 354.16 414.039 364.368 426.591 364.368 L 453.749 364.368 L 453.749 430.766 C 453.749 436.023 449.47 440.301 444.211 440.301 L 431.933 440.301 C 428.198 408.434 401.037 383.621 368.172 383.621 C 335.306 383.621 308.145 408.434 304.41 440.301 L 270.336 440.301 C 266.185 440.301 262.821 443.664 262.821 447.813 C 262.821 451.962 266.185 455.325 270.336 455.325 L 304.41 455.325 C 308.146 487.187 335.308 512 368.173 512 C 401.038 512 428.199 487.187 431.934 455.321 L 444.212 455.321 C 457.759 455.321 468.779 444.305 468.779 430.763 L 468.779 409.281 C 493.203 405.64 511.999 384.537 511.999 359.124 L 511.999 124.894 C 512 76.889 472.931 37.834 424.908 37.834 Z M 183.79 56.25 C 171.552 58.623 162.676 66.321 157.254 72.597 C 155.569 74.548 153.13 75.667 150.561 75.667 L 128.17 75.667 L 128.17 15.024 L 150.561 15.024 C 153.129 15.024 155.568 16.143 157.254 18.094 C 162.676 24.372 171.552 32.068 183.79 34.442 Z M 368.173 496.976 C 341.051 496.976 318.986 474.92 318.986 447.809 C 318.986 420.698 341.051 398.64 368.173 398.64 C 395.294 398.64 417.359 420.697 417.359 447.809 C 417.359 474.92 395.294 496.976 368.173 496.976 Z M 426.592 349.341 C 422.328 349.341 418.858 345.873 418.858 341.61 L 418.858 332.048 L 453.458 314.106 C 453.646 318.115 453.75 322.217 453.75 326.426 L 453.75 349.341 Z" fill="#D63E8F"/></g></g></svg>