<svg version="1.1" width="512" height="512" viewBox="0 0 512 512" xmlns="http://www.w3.org/2000/svg" xmlns:xlink="http://www.w3.org/1999/xlink" overflow="hidden"><g><path d=" M 218 512 C 217.367 512 216.734 511.941 216.109 511.82 C 155.441 500.152 100.359 467.496 61.0117 419.863 C 21.668 372.23 0 311.973 0 250.191 L 0 75.1719 C 0 70.8008 2.83984 66.9336 7.01172 65.6289 L 214.695 0.5625 C 215.746 0.195312 216.898 0.0234375 218 2.84217e-14 L 218.012 2.84217e-14 C 219.145 2.84217e-14 220.258 0.195312 221.309 0.5625 L 428.988 65.6289 C 433.16 66.9375 436 70.8008 436 75.1719 L 436 250.191 C 436 311.973 414.332 372.23 374.984 419.863 C 335.641 467.496 280.559 500.152 219.891 511.82 C 219.266 511.941 218.633 512 218 512 Z M 20 82.5156 L 20 250.191 C 20 367.496 103.152 468.801 218 491.809 C 332.848 468.801 415.996 367.496 415.996 250.191 L 415.996 82.5156 L 218 20.4844 Z" fill="#D63E8F"/><path d=" M 218 454.676 C 217.188 454.676 216.375 454.578 215.586 454.383 C 170.438 443.148 129.699 416.711 100.867 379.941 C 71.9336 343.035 56 296.957 56 250.191 L 56 116.309 C 56 111.938 58.8398 108.074 63.0078 106.77 L 215.008 59.1484 C 216.953 58.5391 219.043 58.5391 220.988 59.1484 L 372.988 106.77 C 377.156 108.074 379.996 111.938 379.996 116.309 L 379.996 250.191 C 379.996 284.375 371.527 318.402 355.508 348.594 C 352.918 353.473 346.867 355.324 341.988 352.738 C 337.109 350.148 335.254 344.098 337.84 339.219 C 352.336 311.906 359.996 281.121 359.996 250.191 L 359.996 123.656 L 217.996 79.168 L 76 123.656 L 76 250.191 C 76 337 134.266 412.375 217.996 434.355 C 241.258 428.25 262.871 417.918 282.277 403.625 C 286.723 400.352 292.984 401.301 296.258 405.746 C 299.535 410.191 298.586 416.453 294.137 419.727 C 271.945 436.074 247.141 447.73 220.41 454.383 C 219.621 454.578 218.809 454.676 218 454.676 Z" fill="#D63E8F"/><path d=" M 199.836 331.258 C 197.273 331.258 194.719 330.281 192.766 328.328 L 125.801 261.363 C 121.895 257.461 121.895 251.129 125.801 247.223 L 159.742 213.281 C 161.617 211.406 164.16 210.352 166.813 210.352 C 169.465 210.352 172.008 211.406 173.883 213.281 L 199.836 239.234 L 262.113 176.953 C 266.02 173.051 272.352 173.047 276.258 176.953 L 310.199 210.895 C 312.074 212.77 313.129 215.313 313.129 217.965 C 313.129 220.617 312.074 223.16 310.199 225.035 L 206.906 328.328 C 204.953 330.281 202.395 331.258 199.836 331.258 Z M 147.012 254.293 L 199.836 307.113 L 288.984 217.965 L 269.184 198.168 L 206.906 260.449 C 205.031 262.324 202.488 263.375 199.836 263.375 C 197.184 263.375 194.641 262.324 192.766 260.449 L 166.813 234.496 Z" fill="#D63E8F"/><path d=" M 321.219 391.102 C 318.59 391.102 316.008 390.039 314.148 388.172 C 312.289 386.313 311.219 383.73 311.219 381.102 C 311.219 378.473 312.289 375.891 314.148 374.031 C 316.008 372.172 318.59 371.102 321.219 371.102 C 323.848 371.102 326.43 372.172 328.289 374.031 C 330.148 375.891 331.219 378.473 331.219 381.102 C 331.219 383.73 330.148 386.313 328.289 388.172 C 326.43 390.039 323.848 391.102 321.219 391.102 Z" fill="#D63E8F"/></g></svg>