<svg version="1.1" width="512" height="512" viewBox="0 0 512 512" xmlns="http://www.w3.org/2000/svg" xmlns:xlink="http://www.w3.org/1999/xlink" overflow="hidden"><g><g><g><path d=" M 85.072 454.931 C 83.213 453.07 80.633 452.001 78.003 452.001 C 75.373 452.001 72.793 453.07 70.933 454.931 C 69.073 456.792 68.003 459.371 68.003 462.001 C 68.003 464.631 69.072 467.211 70.933 469.07 C 72.793 470.93 75.373 472.001 78.003 472.001 C 80.633 472.001 83.213 470.931 85.072 469.07 C 86.932 467.211 88.003 464.631 88.003 462.001 C 88.003 459.371 86.933 456.791 85.072 454.931 Z" fill="#2CC7BA"/></g></g><g><g><path d=" M 469.524 182.938 C 467.664 181.077 465.094 180.008 462.454 180.008 C 459.824 180.008 457.244 181.077 455.384 182.938 C 453.525 184.798 452.454 187.378 452.454 190.008 C 452.454 192.638 453.524 195.218 455.384 197.077 C 457.244 198.937 459.824 200.008 462.454 200.008 C 465.094 200.008 467.664 198.938 469.524 197.077 C 471.393 195.218 472.463 192.638 472.463 190.008 C 472.463 187.378 471.393 184.798 469.524 182.938 Z" fill="#2CC7BA"/></g></g><g><g><path d=" M 509.065 2.929 C 507.189 1.054 504.645 0 501.992 0 L 255.998 0.013 C 250.476 0.013 245.999 4.491 245.999 10.013 L 245.999 38.61 L 151.21 64.009 C 145.875 65.439 142.709 70.922 144.139 76.256 L 193.266 259.598 L 150.767 302.097 C 145.358 294.199 136.276 289.005 126.003 289.005 L 30.006 289.005 C 13.464 289.005 0.007 302.463 0.007 319.004 L 0.007 482 C 0.007 498.542 13.464 512 30.006 512 L 126.004 512 C 140.057 512 151.879 502.284 155.119 489.22 L 167.009 499.589 C 176.188 507.593 187.948 512.001 200.127 512.001 L 501.994 512.001 C 507.516 512.001 511.994 507.523 511.994 502.001 L 511.994 10 C 511.992 7.348 510.94 4.804 509.065 2.929 Z M 136.002 482.001 C 136.002 487.514 131.516 492.001 126.002 492.001 L 30.005 492.001 C 24.491 492.001 20.005 487.515 20.005 482.001 L 20.005 319.005 C 20.005 313.491 24.491 309.005 30.005 309.005 L 68.004 309.005 L 68.004 424.2 C 68.004 429.722 72.482 434.2 78.004 434.2 C 83.526 434.2 88.004 429.722 88.004 424.2 L 88.004 309.005 L 126.003 309.005 C 131.517 309.005 136.003 313.491 136.003 319.005 L 136.003 482.001 Z M 166.045 80.739 L 245.999 59.315 L 245.999 96.37 L 239.297 98.166 C 236.734 98.853 234.551 100.528 233.225 102.825 C 231.899 105.122 231.539 107.851 232.226 110.413 C 236.069 124.754 227.528 139.547 213.187 143.39 C 210.622 144.078 208.435 145.756 207.11 148.058 C 205.785 150.359 205.428 153.093 206.121 155.657 L 245.1 299.995 L 225.03 299.995 L 214.687 259.531 C 214.358 258.243 213.782 257.056 213.011 256.024 L 166.045 80.739 Z M 245.999 142.229 L 245.999 226.61 L 227.76 159.075 C 235.379 155.141 241.614 149.255 245.999 142.229 Z M 389.663 492 L 200.125 492 L 200.125 492 C 192.78 492 185.687 489.342 180.151 484.515 L 156.002 463.454 L 156.002 325.147 L 199.66 281.489 L 207.578 312.469 C 208.71 316.896 212.697 319.992 217.266 319.992 L 413.87 320.004 C 421.59 320.004 427.87 326.284 427.87 334.004 C 427.87 341.724 421.59 348.004 413.87 348.004 L 313.13 348.004 C 307.608 348.004 303.13 352.482 303.13 358.004 C 303.13 363.526 307.608 368.004 313.13 368.004 L 445.17 368.004 C 452.89 368.004 459.17 374.284 459.17 382.004 C 459.17 389.724 452.89 396.004 445.17 396.004 L 313.13 396.004 C 307.608 396.004 303.13 400.482 303.13 406.004 C 303.13 411.526 307.608 416.004 313.13 416.004 L 423.773 416.004 C 431.493 416.004 437.773 422.284 437.773 430.004 C 437.773 437.724 431.493 444.004 423.773 444.004 L 313.13 444.004 C 307.608 444.004 303.13 448.482 303.13 454.004 C 303.13 459.526 307.608 464.004 313.13 464.004 L 389.663 464.004 C 397.383 464.004 403.663 470.284 403.663 478.004 C 403.662 485.72 397.382 492 389.663 492 Z M 491.994 492 L 491.993 492 L 420.634 492 C 422.573 487.727 423.662 482.99 423.662 478 C 423.662 473.01 422.573 468.273 420.634 464 L 423.773 464 C 442.52 464 457.772 448.748 457.772 430.001 C 457.772 424.533 456.467 419.366 454.163 414.784 C 468.559 410.83 479.168 397.635 479.168 382.002 C 479.168 374.418 476.67 367.407 472.457 361.747 L 472.457 235.007 C 472.457 229.485 467.979 225.007 462.457 225.007 C 456.935 225.007 452.457 229.485 452.457 235.007 L 452.457 348.799 C 450.107 348.284 447.67 348.004 445.168 348.004 L 444.84 348.004 C 446.779 343.731 447.868 338.994 447.868 334.004 C 447.868 315.256 432.616 300.005 413.869 300.005 L 397.794 300.005 C 414.863 292.685 426.851 275.719 426.851 256 C 426.851 229.611 405.383 208.142 378.994 208.142 C 352.606 208.142 331.137 229.611 331.137 256 C 331.137 275.719 343.126 292.685 360.194 300.005 L 305.531 300.005 L 305.531 109.863 C 323.395 105.97 337.491 91.875 341.383 74.01 L 416.604 74.01 C 420.496 91.875 434.592 105.97 452.456 109.863 L 452.456 140.953 C 452.456 146.475 456.934 150.953 462.456 150.953 C 467.978 150.953 472.456 146.475 472.456 140.953 L 472.456 100.935 C 472.456 95.413 467.978 90.935 462.456 90.935 C 447.609 90.935 435.532 78.856 435.532 64.01 C 435.532 58.488 431.054 54.01 425.532 54.01 L 332.456 54.01 C 326.934 54.01 322.456 58.488 322.456 64.01 C 322.456 78.857 310.378 90.935 295.532 90.935 C 290.01 90.935 285.532 95.413 285.532 100.935 L 285.532 300.004 L 266 300.004 L 266 20.011 L 491.994 20 L 491.994 492 Z M 378.996 283.858 C 363.635 283.858 351.139 271.361 351.139 256.001 C 351.139 240.641 363.636 228.143 378.996 228.143 C 394.356 228.143 406.853 240.64 406.853 256 C 406.853 271.36 394.357 283.858 378.996 283.858 Z" fill="#2CC7BA"/></g></g><g></g><g></g><g></g><g></g><g></g><g></g><g></g><g></g><g></g><g></g><g></g><g></g><g></g><g></g><g></g></g></svg>