<svg version="1.1" width="512" height="512" viewBox="0 0 512 512" xmlns="http://www.w3.org/2000/svg" xmlns:xlink="http://www.w3.org/1999/xlink" overflow="hidden"><g><path d=" M 316 211 C 316 177.914 289.086 151 256 151 C 222.914 151 196 177.914 196 211 C 196 238.906 215.152 262.426 241 269.102 L 241 301 L 211 301 L 211 331 L 241 331 L 241 361 L 271 361 L 271 331 L 301 331 L 301 301 L 271 301 L 271 269.102 C 296.848 262.426 316 238.906 316 211 Z M 226 211 C 226 194.457 239.457 181 256 181 C 272.543 181 286 194.457 286 211 C 286 227.543 272.543 241 256 241 C 239.457 241 226 227.543 226 211 Z" fill="#2CC7BA"/><path d=" M 256 91 C 165.02 91 91 165.02 91 256 C 91 346.98 165.02 421 256 421 C 346.98 421 421 346.98 421 256 C 421 165.02 346.98 91 256 91 Z M 256 391 C 181.563 391 121 330.438 121 256 C 121 181.563 181.563 121 256 121 C 330.438 121 391 181.563 391 256 C 391 330.438 330.438 391 256 391 Z" fill="#2CC7BA"/><path d=" M 141.492 27.6602 L 171.492 79.6211 L 145.512 94.6211 L 115.512 42.6602 Z" fill="#2CC7BA"/><path d=" M 370.5 484.344 L 340.5 432.387 L 366.48 417.387 L 396.48 469.344 Z" fill="#2CC7BA"/><path d=" M 370.5 27.6602 L 396.48 42.6602 L 366.48 94.6211 L 340.5 79.6211 Z" fill="#2CC7BA"/><path d=" M 141.492 484.348 L 115.512 469.348 L 145.512 417.387 L 171.492 432.387 Z" fill="#2CC7BA"/><path d=" M 469.34 115.5 L 484.34 141.48 L 432.379 171.48 L 417.379 145.5 Z" fill="#2CC7BA"/><path d=" M 42.6563 396.492 L 27.6563 370.512 L 79.6133 340.512 L 94.6133 366.492 Z" fill="#2CC7BA"/><path d=" M 452 241 L 512 241 L 512 271 L 452 271 Z" fill="#2CC7BA"/><path d=" M 0 241 L 60 241 L 60 271 L 0 271 Z" fill="#2CC7BA"/><path d=" M 469.348 396.5 L 417.387 366.5 L 432.387 340.52 L 484.348 370.52 Z" fill="#2CC7BA"/><path d=" M 42.6641 115.508 L 94.6211 145.508 L 79.6211 171.484 L 27.6641 141.484 Z" fill="#2CC7BA"/><path d=" M 241 0 L 271 0 L 271 60 L 241 60 Z" fill="#2CC7BA"/><path d=" M 241 452 L 271 452 L 271 512 L 241 512 Z" fill="#2CC7BA"/></g></svg>